<svg xmlns="http://www.w3.org/2000/svg" viewBox="0 0 16.383 23.383"><defs><style>.a{fill:none;stroke:#252e3b;stroke-linecap:round;stroke-miterlimit:10;stroke-width:1.3px;}.b{fill:#252e3b;}</style></defs><g transform="translate(-9 -6)"><g transform="translate(9 6)"><path class="a" d="M5.6,0A3.961,3.961,0,0,1,0,.129" transform="translate(5.506 16.629)"/><path class="b" d="M1.92.96A.96.96,0,1,1,.96,0a.96.96,0,0,1,.96.96" transform="translate(4.706 10.652)"/><path class="b" d="M1.92.96A.96.96,0,1,1,.96,0a.961.961,0,0,1,.96.96" transform="translate(10.087 10.652)"/><path class="a" d="M15.083,9.25v5.292A7.542,7.542,0,0,1,0,14.542V6.247a2.58,2.58,0,0,1,2.58-2.58H8.917A3.667,3.667,0,0,0,12.583,0" transform="translate(0.65 0.65)"/></g></g></svg>