<svg xmlns="http://www.w3.org/2000/svg" viewBox="0 0 20.302 21.032"><defs><style>.a{fill:none;stroke:#252e3b;stroke-linecap:round;stroke-linejoin:round;stroke-miterlimit:10;stroke-width:1.3px;}</style></defs><g transform="translate(-6.999 -7.994)"><g transform="translate(7 8)"><path class="a" d="M17.59,12.534l-.383-.163a2.808,2.808,0,0,1-1.7-2.311l-.475-4.875A5.672,5.672,0,0,0,10.288.055,5.546,5.546,0,0,0,3.983,5.007l-.492,5.041a2.807,2.807,0,0,1-1.682,2.305l-.512.222A2.146,2.146,0,0,0,0,14.546v.008A2.148,2.148,0,0,0,2.148,16.7H16.854a2.146,2.146,0,0,0,2.134-2.374A2.25,2.25,0,0,0,17.59,12.534Z" transform="translate(0.65 0.65)"/><path class="a" d="M5.358,0a2.679,2.679,0,0,1-2.68,2.679A2.679,2.679,0,0,1,0,0" transform="translate(7.482 17.697)"/></g></g></svg>