<svg xmlns="http://www.w3.org/2000/svg" viewBox="0 0 18 20.85"><defs><style>.a{fill:#252e3b;}</style></defs><g transform="translate(-8 -7)"><g transform="translate(8 7)"><path class="a" d="M14.4,20.85H3.6a2.362,2.362,0,0,1-2.4-2.317V6.95H0V3.475A1.18,1.18,0,0,1,1.2,2.317H6V1.158A1.181,1.181,0,0,1,7.2,0h3.6A1.181,1.181,0,0,1,12,1.158V2.317h4.8A1.181,1.181,0,0,1,18,3.475V6.95H16.8V18.534A2.362,2.362,0,0,1,14.4,20.85ZM2.4,6.95V18.534a1.181,1.181,0,0,0,1.2,1.158H14.4a1.181,1.181,0,0,0,1.2-1.158l0-11.584ZM1.8,3.475a.59.59,0,0,0-.6.579V5.792H16.8V4.054a.59.59,0,0,0-.6-.579Zm6-2.317a.59.59,0,0,0-.6.58v.579h3.6V1.738a.591.591,0,0,0-.6-.58Zm4.8,16.217a.59.59,0,0,1-.6-.58V9.846a.6.6,0,0,1,1.2,0V16.8A.59.59,0,0,1,12.6,17.375Zm-3.6,0a.59.59,0,0,1-.6-.58V9.846a.6.6,0,0,1,1.2,0V16.8A.59.59,0,0,1,9,17.375Zm-3.6,0a.59.59,0,0,1-.6-.58V9.846a.6.6,0,0,1,1.2,0V16.8A.59.59,0,0,1,5.4,17.375Z"/></g></g></svg>