<svg xmlns="http://www.w3.org/2000/svg" viewBox="0 0 20.44 21.736"><defs><style>.a{fill:none;stroke:#252e3b;stroke-linecap:round;stroke-linejoin:round;stroke-miterlimit:10;stroke-width:1.3px;}</style></defs><g transform="translate(-6.865 -6.999)"><g transform="translate(7 7)"><path class="a" d="M12.409.564A1.619,1.619,0,0,0,10.124.392L.564,8.61A1.622,1.622,0,0,0,.391,10.9l1.527,1.775L13.935,2.339Z" transform="translate(0.65 0.65)"/><path class="a" d="M0,3.945l1.682,6.541a1.621,1.621,0,0,0,1.972,1.167l12.21-3.139A1.621,1.621,0,0,0,17.03,6.541L15.35,0Z" transform="translate(2.568 9.376)"/><path class="a" d="M0,0,1.054,4.1" transform="translate(3.913 6.979)"/><path class="a" d="M0,0,1.054,4.1" transform="translate(6.726 4.721)"/><path class="a" d="M0,0,1.054,4.1" transform="translate(9.386 2.411)"/></g></g></svg>