<?xml version="1.0" encoding="UTF-8"?>
<svg width="20px" height="20px" viewBox="0 0 20 20" version="1.1" xmlns="http://www.w3.org/2000/svg" xmlns:xlink="http://www.w3.org/1999/xlink">
    <!-- Generator: sketchtool 52.3 (67297) - http://www.bohemiancoding.com/sketch -->
    <title>89FF662F-7679-48D3-A747-AE2906F6168B</title>
    <desc>Created with sketchtool.</desc>
    <g id="New" stroke="none" stroke-width="1" fill="none" fill-rule="evenodd">
        <g id="View-From-Published-Vertical-1920" transform="translate(-1860.000000, -40.000000)" fill="#FFFFFF">
            <g id="under">
                <g id="ic_big-X" transform="translate(1860.000000, 40.000000)">
                    <path d="M10.9010667,10 L19.8154203,1.08564638 C20.055048,0.846018732 20.060438,0.437207412 19.8116153,0.188384711 C19.5610578,-0.0621727363 19.1610749,-0.0621415645 18.9143536,0.184579671 L10,9.09893329 L1.08564638,0.184579671 C0.846018732,-0.0550479781 0.437207412,-0.0604379902 0.188384711,0.188384711 C-0.0621727363,0.438942159 -0.0621415645,0.838925146 0.184579671,1.08564638 L9.09893329,10 L0.184579671,18.9143536 C-0.0550479781,19.1539813 -0.0604379902,19.5627926 0.188384711,19.8116153 C0.438942159,20.0621727 0.838925146,20.0621416 1.08564638,19.8154203 L10,10.9010667 L18.9143536,19.8154203 C19.1539813,20.055048 19.5627926,20.060438 19.8116153,19.8116153 C20.0621727,19.5610578 20.0621416,19.1610749 19.8154203,18.9143536 L10.9010667,10 L10.9010667,10 Z"></path>
                </g>
            </g>
        </g>
    </g>
</svg>