<svg xmlns="http://www.w3.org/2000/svg" viewBox="0 0 24.397 16.619"><defs><style>.a,.b{fill:none;stroke:#252e3b;stroke-linecap:round;stroke-miterlimit:10;stroke-width:1.3px;}.b{stroke-linejoin:round;}</style></defs><g transform="translate(-4.941 -8.962)"><path class="a" d="M14.071,13.269h6.3a2.592,2.592,0,0,0,2.058-4.192c-.038-.046-.077-.091-.118-.135s-.083-.088-.127-.129a2.431,2.431,0,0,0-1.429-.68.662.662,0,0,1-.578-.743,6.293,6.293,0,0,0-1.408-4.908c-.1-.118-.2-.234-.3-.349s-.214-.224-.325-.331A6.653,6.653,0,0,0,7.268,4.7a.676.676,0,0,1-.967.381,4.209,4.209,0,0,0-4.927.677q-.109.1-.213.216c-.069.075-.135.151-.2.229a4.365,4.365,0,0,0,3.465,7.06H8.971" transform="translate(5.65 9.65)"/><path class="b" d="M2.42,4.029,0,2.068,2.434,0" transform="translate(18.95 20.902)"/></g></svg>