<svg xmlns="http://www.w3.org/2000/svg" viewBox="0 0 24.396 14.607"><defs><style>.a,.b{fill:none;stroke:#252e3b;stroke-linecap:round;stroke-miterlimit:10;stroke-width:1.3px;}.b{stroke-linejoin:round;}</style></defs><g transform="translate(-4.942 -8.962)"><g transform="translate(5 9)"><path class="a" d="M10.808,13.269h9.563a2.592,2.592,0,0,0,2.058-4.192c-.038-.046-.077-.092-.118-.136s-.083-.088-.127-.129a2.431,2.431,0,0,0-1.43-.68.661.661,0,0,1-.577-.743,6.29,6.29,0,0,0-1.408-4.907c-.1-.119-.2-.235-.305-.35s-.214-.224-.324-.331A6.653,6.653,0,0,0,7.268,4.7a.677.677,0,0,1-.967.382,4.209,4.209,0,0,0-4.928.676c-.072.07-.143.142-.212.216s-.135.152-.2.229a4.366,4.366,0,0,0,3.466,7.06h7.236" transform="translate(0.65 0.65)"/><path class="b" d="M5.479,0,2.068,3.869,0,1.436" transform="translate(11.472 6.377)"/></g></g></svg>