<svg xmlns="http://www.w3.org/2000/svg" viewBox="0 0 24.399 18.337"><defs><style>.a{fill:none;stroke:#252e3b;stroke-linecap:round;stroke-miterlimit:10;stroke-width:1.3px;}</style></defs><g transform="translate(-5.29 -8.313)"><g transform="translate(6 9)"><path class="a" d="M16.521,13h3.85a2.535,2.535,0,0,0,2.058-4.107c-.038-.045-.078-.089-.119-.134s-.082-.085-.126-.126a2.457,2.457,0,0,0-1.43-.666.651.651,0,0,1-.577-.728,6.082,6.082,0,0,0-1.408-4.808c-.1-.116-.2-.23-.305-.342s-.213-.22-.324-.325A6.708,6.708,0,0,0,7.268,4.608a.68.68,0,0,1-.966.374,4.276,4.276,0,0,0-4.928.663q-.108.1-.213.212c-.069.073-.136.148-.2.224A4.27,4.27,0,0,0,4.427,13H7.442" transform="translate(0 0)"/><path class="a" d="M0,3,3,0,6,3" transform="translate(9 7)"/><path class="a" d="M0,0V9" transform="translate(12 8)"/></g></g></svg>