<svg xmlns="http://www.w3.org/2000/svg" viewBox="0 0 21.069 21.068"><defs><style>.a{fill:none;stroke:#252e3b;stroke-linecap:round;stroke-linejoin:round;stroke-miterlimit:10;stroke-width:1.3px;}</style></defs><g transform="translate(-7 -7)"><g transform="translate(7 7)"><path class="a" d="M19.769,9.884A9.884,9.884,0,1,1,9.884,0,9.885,9.885,0,0,1,19.769,9.884Z" transform="translate(0.65 0.65)"/><path class="a" d="M0,0A6.281,6.281,0,0,0,4.356,1.759,6.282,6.282,0,0,0,8.713,0" transform="translate(6.178 14.042)"/><path class="a" d="M0,0H17.132" transform="translate(2.008 6.961)"/><path class="a" d="M3.938,4.418H1.953A1.464,1.464,0,0,1,.507,3.185L0,0H6.316L5.875,2.765A1.96,1.96,0,0,1,3.938,4.418Z" transform="translate(3.23 6.975)"/><path class="a" d="M4.384,4.425,2.4,4.434A1.964,1.964,0,0,1,.453,2.79L0,.028,6.316,0,5.824,3.185A1.463,1.463,0,0,1,4.384,4.425Z" transform="translate(11.398 6.961)"/><path class="a" d="M0,3.9,2.129,1.977,2.639,0" transform="translate(4.295 7.239)"/><path class="a" d="M0,3.9,2.129,1.977,2.639,0" transform="translate(12.887 7.239)"/></g></g></svg>