<svg xmlns="http://www.w3.org/2000/svg" viewBox="0 0 17.483 15.35"><defs><style>.a,.b,.c{fill:none;stroke:#252e3b;stroke-miterlimit:10;stroke-width:1.3px;}.a{stroke-linejoin:round;}.c{stroke-linecap:round;}</style></defs><g transform="translate(-9 -10)"><g transform="translate(9 10)"><path class="a" d="M4.744,11.084h0A4.744,4.744,0,0,1,0,6.34V0H9.487V6.34A4.743,4.743,0,0,1,4.744,11.084Z" transform="translate(3.994 0.65)"/><path class="b" d="M0,4.767H.766A2.384,2.384,0,0,0,.766,0H0" transform="translate(13.685 2.3)"/><path class="b" d="M3.148,0H2.383a2.384,2.384,0,0,0,0,4.767h.765" transform="translate(0.65 2.3)"/><path class="c" d="M0,2.495V0" transform="translate(8.738 11.734)"/><g transform="translate(6 14.35)"><path class="c" d="M0,0H4.832" transform="translate(0.332 0.35)"/></g></g></g></svg>