<svg xmlns="http://www.w3.org/2000/svg" viewBox="0 0 21.069 21.068"><defs><style>.a{fill:none;stroke:#252e3b;stroke-linecap:round;stroke-linejoin:round;stroke-miterlimit:10;stroke-width:1.3px;}</style></defs><g transform="translate(-6.999 -7)"><g transform="translate(7 7)"><path class="a" d="M19.769,9.884A9.884,9.884,0,1,1,9.885,0,9.884,9.884,0,0,1,19.769,9.884Z" transform="translate(0.649 0.65)"/><path class="a" d="M0,0A6.331,6.331,0,0,0,6.111,4.692,6.332,6.332,0,0,0,12.223,0Z" transform="translate(4.423 11.667)"/><path class="a" d="M3.729,1.539A2.073,2.073,0,0,0,0,.925" transform="translate(12.213 6.74)"/><path class="a" d="M0,1.539A2.073,2.073,0,0,1,3.729.925" transform="translate(5.183 6.74)"/></g></g></svg>