<svg xmlns="http://www.w3.org/2000/svg" viewBox="0 0 19.3 19.3"><defs><style>.a{fill:none;stroke:#252e3b;stroke-linecap:round;stroke-miterlimit:10;stroke-width:1.3px;}.b{fill:#252e3b;}</style></defs><g transform="translate(-8 -8)"><g transform="translate(8 8)"><path class="a" d="M0,9A9,9,0,1,0,9,0,9,9,0,0,0,0,9Z" transform="translate(0.65 0.65)"/><path class="a" d="M0,1.914A1.981,1.981,0,0,1,2.24,0,2,2,0,0,1,4.417,1.882a2.208,2.208,0,0,1-1.028,1.9A2.427,2.427,0,0,0,2.208,5.815v0" transform="translate(7.442 5.158)"/><path class="b" d="M0,1.1A1.1,1.1,0,1,0,1.1,0,1.1,1.1,0,0,0,0,1.1" transform="translate(8.508 13.033)"/></g></g></svg>