<svg xmlns="http://www.w3.org/2000/svg" viewBox="0 0 15.51 21.223"><defs><style>.a{fill:none;stroke:#252e3b;stroke-linecap:round;stroke-linejoin:round;stroke-miterlimit:10;stroke-width:1.3px;}</style></defs><g transform="translate(-9.993 -7)"><g transform="translate(10 7)"><path class="a" d="M1.352,10.363A40.335,40.335,0,0,0,.04,1.653,1.336,1.336,0,0,1,2.63,1,40.677,40.677,0,0,1,4.1,10.371" transform="translate(5.246 0.65)"/><path class="a" d="M3.65,8.075A22.674,22.674,0,0,0,2.142.609.945.945,0,0,0,1.253,0h-.3a.949.949,0,0,0-.93,1.16A35.531,35.531,0,0,1,.851,6.7" transform="translate(8.451 2.927)"/><path class="a" d="M1.115,10.5A29.337,29.337,0,0,0,.07,1.895a1.454,1.454,0,1,1,2.8-.793,33.744,33.744,0,0,1,.913,5.437" transform="translate(2.733 2.704)"/><path class="a" d="M.448,4.937A13.653,13.653,0,0,0,.042,1.842,1.492,1.492,0,0,1,1.5,0,1.477,1.477,0,0,1,2.839.833a4.334,4.334,0,0,1,.394,1.65" transform="translate(0.65 8.347)"/><path class="a" d="M10.952,4.324a24.931,24.931,0,0,0-.479-3.181.953.953,0,0,1,1.8-.6A16.763,16.763,0,0,1,13.748,7.38l-.022,1.09A6.865,6.865,0,1,1,0,8.012" transform="translate(1.105 5.467)"/><path class="a" d="M0,0H.024A2.468,2.468,0,0,1,2.408,2.549" transform="translate(6.213 14.901)"/></g></g></svg>