<svg xmlns="http://www.w3.org/2000/svg" viewBox="0 0 23.507 21.069"><defs><style>.a{fill:none;stroke:#252e3b;stroke-linecap:round;stroke-linejoin:round;stroke-miterlimit:10;stroke-width:1.3px;}.b{fill:#252e3b;}</style></defs><g transform="translate(-7 -7)"><g transform="translate(7 7)"><path class="a" d="M3.829,6.943a.338.338,0,0,1-.2-.063C.215,4.462-.043,2.749,0,2.125A2.132,2.132,0,0,1,3.83.838,2.131,2.131,0,0,1,7.655,2.124v.008c.037.633-.243,2.364-3.63,4.747A.335.335,0,0,1,3.829,6.943Z" transform="translate(15.197 11.146)"/><path class="a" d="M17.028,16.716a9.885,9.885,0,1,1,2.74-6.832c0,.16,0,.318-.011.476" transform="translate(0.65 0.65)"/><path class="a" d="M.673,1.965A.983.983,0,1,0,.673,0H0" transform="translate(10.137 12.396)"/><path class="a" d="M.68,0a.983.983,0,0,1,0,1.966H0" transform="translate(10.13 14.334)"/><path class="b" d="M2.552,1.275A1.276,1.276,0,1,1,1.277,0,1.275,1.275,0,0,1,2.552,1.275" transform="translate(12.842 7.137)"/><path class="b" d="M2.551,1.275A1.276,1.276,0,1,1,1.276,0,1.275,1.275,0,0,1,2.551,1.275" transform="translate(5.629 7.137)"/></g></g></svg>