<svg xmlns="http://www.w3.org/2000/svg" viewBox="0 0 31.972 23.005"><defs><style>.a{fill:none;stroke:#252e3b;stroke-miterlimit:10;stroke-width:1.3px;}.b{fill:#252e3b;}</style></defs><g transform="translate(-1.274 -5.941)"><g transform="translate(1.167 5.833)"><path class="a" d="M22.666,15.006H1.167A1.167,1.167,0,0,1,0,13.839V1.167A1.166,1.166,0,0,1,1.167,0h21.5a1.166,1.166,0,0,1,1.167,1.167V13.839A1.167,1.167,0,0,1,22.666,15.006Z" transform="translate(7.597 7.457)"/><path class="a" d="M3.645,14.607H.874A.874.874,0,0,1,0,13.732V.875A.875.875,0,0,1,.874,0H22.837a.875.875,0,0,1,.875.875V3.7" transform="translate(4.23 4.229)"/><path class="a" d="M4.055,14.607H.875A.875.875,0,0,1,0,13.732V.875A.875.875,0,0,1,.875,0H22.839a.875.875,0,0,1,.875.875V4" transform="translate(0.758 0.758)"/><path class="b" d="M4.3,2.087a.545.545,0,0,1,0,.944L2.56,4.037.817,5.043A.544.544,0,0,1,0,4.572V.546A.545.545,0,0,1,.817.073L2.56,1.08Z" transform="translate(17.156 12.401)"/></g></g></svg>