<svg xmlns="http://www.w3.org/2000/svg" viewBox="0 0 21.379 19.966"><defs><style>.a{fill:none;stroke:#252e3b;stroke-linecap:round;stroke-linejoin:round;stroke-miterlimit:10;stroke-width:1.3px;}</style></defs><g transform="translate(-7.108 -7.109)"><g transform="translate(7 7)"><path class="a" d="M0,12.791H6.416V0H0Z" transform="translate(0.758 6.634)"/><path class="a" d="M.224,8.556l.749-.749A11.041,11.041,0,0,0,4.207,0h.959A2.36,2.36,0,0,1,7.527,2.36V6.887H11.3a2.36,2.36,0,0,1,2.345,2.627l-.791,6.953a2.36,2.36,0,0,1-2.345,2.094H5.1A5.909,5.909,0,0,1,.929,16.834L0,15.9" transform="translate(7.174 0.759)"/></g></g></svg>