<svg xmlns="http://www.w3.org/2000/svg" viewBox="0 0 19.311 19.32"><defs><style>.a{fill:none;stroke:#252e3b;stroke-linecap:round;stroke-linejoin:round;stroke-miterlimit:10;stroke-width:1.3px;}</style></defs><g transform="translate(-8 -8)"><g transform="translate(8 8)"><path class="a" d="M18.011,9.005A9.005,9.005,0,1,1,9.006,0,9.005,9.005,0,0,1,18.011,9.005Z" transform="translate(0.65 0.659)"/><path class="a" d="M6.8,3.4A3.4,3.4,0,1,1,3.4,0,3.4,3.4,0,0,1,6.8,3.4Z" transform="translate(6.257 3.786)"/><path class="a" d="M0,5.4V1.908C0,.854,1.215,0,2.712,0H9.188c1.5,0,2.711.854,2.711,1.908V5.4" transform="translate(3.687 10.753)"/><path class="a" d="M0,18.02V0" transform="translate(9.656 0.65)"/><path class="a" d="M0,4.46,5.767,0" transform="translate(9.848 3.613)"/><path class="a" d="M0,6.312,8.517,0" transform="translate(9.848 8.98)"/></g></g></svg>