<svg xmlns="http://www.w3.org/2000/svg" viewBox="0 0 23.125 23.124"><defs><style>.a,.c{fill:none;stroke:#252e3b;stroke-linecap:round;stroke-miterlimit:10;}.a{stroke-width:1.3px;}.b{fill:#252e3b;}.c{stroke-linejoin:round;}</style></defs><g transform="translate(-5.942 -5.917)"><g transform="translate(5.833 5.833)"><path class="a" d="M0,0V21.608" transform="translate(11.771 0.95)"/><path class="b" d="M0,2.994l3.436-.012L1.724,0Z" transform="translate(10.028 0.583)"/><path class="c" d="M3.436,2.982,1.723,0,0,2.994Z" transform="translate(10.028 0.583)"/><path class="b" d="M0,.013,1.713,2.995,3.436,0Z" transform="translate(10.028 19.563)"/><g transform="translate(0 10.483)"><path class="c" d="M0,.012,1.713,2.994,3.436,0Z" transform="translate(10.027 9.081)"/><path class="a" d="M21.608,0H0" transform="translate(0.758 1.113)"/></g><path class="b" d="M.012,3.437,2.995,1.725,0,0Z" transform="translate(19.739 9.851)"/><path class="c" d="M.012,3.437,2.995,1.724,0,0Z" transform="translate(19.739 9.852)"/><path class="b" d="M0,1.713,2.994,3.437,2.982,0Z" transform="translate(0.758 9.852)"/><path class="c" d="M2.983,0,0,1.713,2.995,3.437Z" transform="translate(0.757 9.852)"/></g></g></svg>