<svg xmlns="http://www.w3.org/2000/svg" xmlns:xlink="http://www.w3.org/1999/xlink" viewBox="0 0 11.319 17.507"><defs><style>.a{fill:none;}.b{clip-path:url(#a);}.c{fill:#252e3b;}</style><clipPath id="a"><path class="a" d="M0,0H11.319V17.507H0Z" transform="translate(0.001 0)"/></clipPath></defs><g transform="translate(-12.834 -9.334)"><g transform="translate(12.833 9.333)"><path class="a" d="M0,0H11.319V17.507H0Z" transform="translate(0.001 0)"/><g class="b"><path class="c" d="M.177,17.508v0L0,12.866,5.612,3.132,6.706,1.237A2.471,2.471,0,0,1,10.083.331a2.474,2.474,0,0,1,.906,3.377L4.283,15.338l-4.1,2.169ZM6.548,4.546l-4.971,8.62.018.006.007,0a.1.1,0,0,1,.03.01l1.557.9a.088.088,0,0,1,.023.021.188.188,0,0,0,.02.018L8.205,5.5Zm2.3-3.029a.959.959,0,0,0-.829.478L7.305,3.232l1.656.954L9.675,2.95a.956.956,0,0,0-.826-1.434Z" transform="translate(0.001 0)"/></g></g></g></svg>