<svg xmlns="http://www.w3.org/2000/svg" viewBox="0 0 20.184 16.246"><defs><style>.a{fill:none;stroke:#252e3b;stroke-linecap:round;stroke-linejoin:round;stroke-miterlimit:10;stroke-width:1.3px;}</style></defs><g transform="translate(-7.966 -9)"><g transform="translate(8 9)"><path class="a" d="M13.861,7.423,10.965.541A.884.884,0,0,0,9.637.165L.37,6.786a.883.883,0,0,0-.3,1.061l.951,2.26a.883.883,0,0,0,.969.526l11.213-2A.883.883,0,0,0,13.861,7.423Z" transform="translate(0.65 2.794)"/><path class="a" d="M0,.756.243,2.187a.741.741,0,0,0,.856.606L3.993,2.3A.742.742,0,0,0,4.6,1.444L4.354,0" transform="translate(6.08 12.778)"/><path class="a" d="M0,1.417,1.184,0" transform="translate(14.878 0.65)"/><path class="a" d="M1.845.03,0,0" transform="translate(17.655 8.388)"/><path class="a" d="M1.734,0,0,.788" transform="translate(17.315 3.961)"/></g></g></svg>