<svg xmlns="http://www.w3.org/2000/svg" viewBox="0 0 28.613 19.299"><defs><style>.a{fill:none;stroke:#252e3b;stroke-linecap:round;stroke-miterlimit:10;stroke-width:1.3px;}.b{fill:#252e3b;}</style></defs><g transform="translate(-4.774 -7.108)"><g transform="translate(4.667 7)"><path class="a" d="M24.593,5.488V14.61a.875.875,0,0,1-.875.875H.875A.875.875,0,0,1,0,14.61V.875A.875.875,0,0,1,.875,0H15.219" transform="translate(0.758 3.272)"/><path class="b" d="M4.218,2.045a.534.534,0,0,1,0,.924l-1.709.986L.8,4.942A.534.534,0,0,1,0,4.481V.534A.534.534,0,0,1,.8.072l1.708.987Z" transform="translate(11.401 8.507)"/><path class="a" d="M7.761,0H2.672A2.671,2.671,0,0,0,0,2.672" transform="translate(19.655 3.281)"/><path class="a" d="M.026,5.046l2.51-2.509L0,0" transform="translate(25.266 0.758)"/></g></g></svg>