<svg xmlns="http://www.w3.org/2000/svg" viewBox="0 0 21.069 21.068"><defs><style>.a{fill:none;stroke:#252e3b;stroke-linecap:round;stroke-linejoin:round;stroke-miterlimit:10;stroke-width:1.3px;}</style></defs><g transform="translate(-7 -7)"><g transform="translate(7 7)"><path class="a" d="M19.769,9.884A9.884,9.884,0,1,1,9.884,0,9.885,9.885,0,0,1,19.769,9.884Z" transform="translate(0.65 0.65)"/><path class="a" d="M3.768,1.884A1.884,1.884,0,1,1,1.884,0,1.884,1.884,0,0,1,3.768,1.884Z" transform="translate(11.911 7.019)"/><path class="a" d="M3.769,1.884A1.885,1.885,0,1,1,1.884,0,1.884,1.884,0,0,1,3.769,1.884Z" transform="translate(5.386 7.019)"/><path class="a" d="M0,1.632,1.622.323A1.46,1.46,0,0,1,3.649.512l.023.026A1.46,1.46,0,0,0,5.9.527,1.462,1.462,0,0,1,7.934.321l1.7,1.355" transform="translate(5.629 14.052)"/></g></g></svg>