<svg xmlns="http://www.w3.org/2000/svg" viewBox="0 0 19.256 18.108"><defs><style>.a{fill:none;stroke:#252e3b;stroke-linecap:round;stroke-miterlimit:10;stroke-width:1.3px;}</style></defs><g transform="translate(-8.036 -9.036)"><g transform="translate(8 9)"><path class="a" d="M12.049,0H0" transform="translate(6.593 9.06)"/><path class="a" d="M1.808,0H0" transform="translate(0.686 9.06)"/><path class="a" d="M10.825,0H0" transform="translate(0.686 15.471)"/><path class="a" d="M12.364,0H0" transform="translate(0.686 2.778)"/><path class="a" d="M1.494,0H0" transform="translate(17.148 2.778)"/><path class="a" d="M3.034,0H0" transform="translate(15.608 15.471)"/><path class="a" d="M4.1,2.049A2.049,2.049,0,1,1,2.05,0,2.048,2.048,0,0,1,4.1,2.049Z" transform="translate(13.05 0.687)"/><path class="a" d="M4.1,2.049A2.049,2.049,0,1,1,2.049,0,2.049,2.049,0,0,1,4.1,2.049Z" transform="translate(11.511 13.397)"/><path class="a" d="M4.1,2.049A2.049,2.049,0,1,1,2.05,0,2.048,2.048,0,0,1,4.1,2.049Z" transform="translate(2.494 6.976)"/></g></g></svg>