<svg xmlns="http://www.w3.org/2000/svg" viewBox="0 0 16.625 17.916"><defs><style>.a{fill:none;stroke:#252e3b;stroke-linecap:round;stroke-linejoin:round;stroke-miterlimit:10;stroke-width:1.3px;}</style></defs><g transform="translate(-9 -9)"><g transform="translate(9 9)"><path class="a" d="M3.542,1.771A1.771,1.771,0,1,1,1.771,0,1.771,1.771,0,0,1,3.542,1.771Z" transform="translate(0.65 7.34)"/><path class="a" d="M3.542,1.771A1.771,1.771,0,1,1,1.771,0,1.771,1.771,0,0,1,3.542,1.771Z" transform="translate(12.433 13.724)"/><path class="a" d="M3.542,1.771A1.771,1.771,0,1,1,1.771,0,1.771,1.771,0,0,1,3.542,1.771Z" transform="translate(12.433 0.65)"/><path class="a" d="M0,5.072,8.287,0" transform="translate(4.115 3.277)"/><path class="a" d="M0,0,8.394,4.715" transform="translate(3.972 10.027)"/></g></g></svg>