<svg xmlns="http://www.w3.org/2000/svg" viewBox="0 0 21.069 21.068"><defs><style>.a{fill:none;stroke:#252e3b;stroke-linecap:round;stroke-linejoin:round;stroke-miterlimit:10;stroke-width:1.3px;}.b{fill:#252e3b;}</style></defs><g transform="translate(-7 -7)"><g transform="translate(7 7)"><path class="a" d="M19.769,9.884A9.884,9.884,0,1,1,9.884,0,9.885,9.885,0,0,1,19.769,9.884Z" transform="translate(0.65 0.65)"/><path class="a" d="M0,0A6.3,6.3,0,0,0,5.024,2.493,6.306,6.306,0,0,0,10.05,0" transform="translate(5.51 13.866)"/><path class="b" d="M2.551,1.275A1.276,1.276,0,1,1,1.276,0,1.274,1.274,0,0,1,2.551,1.275" transform="translate(12.842 7.137)"/><path class="b" d="M2.552,1.275A1.276,1.276,0,1,1,1.276,0,1.275,1.275,0,0,1,2.552,1.275" transform="translate(5.628 7.137)"/></g></g></svg>