<svg xmlns="http://www.w3.org/2000/svg" viewBox="0 0 22.201 21.068"><defs><style>.a{fill:none;stroke:#252e3b;stroke-linecap:round;stroke-linejoin:round;stroke-miterlimit:10;stroke-width:1.3px;}</style></defs><g transform="translate(-5.975 -7)"><g transform="translate(6 7)"><path class="a" d="M2.544,3.264A9.858,9.858,0,1,1,.422,7.02" transform="translate(1.757 0.65)"/><path class="a" d="M3.73,1.539A2.074,2.074,0,0,0,0,.925" transform="translate(13.319 7.444)"/><path class="a" d="M0,1.539A2.073,2.073,0,0,1,3.729.925" transform="translate(6.29 7.444)"/><path class="a" d="M8.713,1.76A6.272,6.272,0,0,0,0,1.76" transform="translate(7.308 13.338)"/><path class="a" d="M2.061,0,3.843,3.086a2.058,2.058,0,1,1-3.564,0Z" transform="translate(0.65 1.455)"/></g></g></svg>