<svg xmlns="http://www.w3.org/2000/svg" viewBox="0 0 17.02 22.34"><defs><style>.a{fill:none;stroke:#252e3b;stroke-linecap:round;stroke-linejoin:round;stroke-miterlimit:10;stroke-width:1.3px;}</style></defs><g transform="translate(-10.041 -6.04)"><g transform="translate(10 6)"><path class="a" d="M8.293.645,7.1.1A1.061,1.061,0,0,0,5.69.62L.1,12.812A1.063,1.063,0,0,0,.62,14.221l1.2.547a1.062,1.062,0,0,0,1.409-.522L8.816,2.054A1.062,1.062,0,0,0,8.293.645Z" transform="translate(2.006 6.86)"/><path class="a" d="M0,0,2.313,1.061" transform="translate(6.892 10.468)"/><path class="a" d="M0,0,4.217,1.935" transform="translate(0.691 3.938)"/><path class="a" d="M0,4.217,1.934,0" transform="translate(1.832 2.797)"/><path class="a" d="M0,.2,2.749,0" transform="translate(10.39 1.964)"/><path class="a" d="M.2,2.749,0,0" transform="translate(11.663 0.69)"/><path class="a" d="M0,0,1.041,2.551" transform="translate(14.615 8.611)"/><path class="a" d="M0,1.041,2.551,0" transform="translate(13.86 9.367)"/></g></g></svg>