<svg xmlns="http://www.w3.org/2000/svg" viewBox="0 0 38 25"><defs><style>.a{fill:#232f3a;}</style></defs><path class="a" d="M7.6,15A7.562,7.562,0,0,1,0,7.493,7.556,7.556,0,0,1,7.6,0a7.556,7.556,0,0,1,7.6,7.493A7.563,7.563,0,0,1,7.6,15Zm0-13.777a6.322,6.322,0,0,0-6.358,6.27,6.359,6.359,0,0,0,12.718,0A6.322,6.322,0,0,0,7.6,1.223Z" transform="translate(0 10)"/><path class="a" d="M7.6,15A7.562,7.562,0,0,1,0,7.493,7.556,7.556,0,0,1,7.6,0a7.556,7.556,0,0,1,7.6,7.493A7.563,7.563,0,0,1,7.6,15Zm0-13.777a6.322,6.322,0,0,0-6.358,6.27,6.359,6.359,0,0,0,12.718,0A6.322,6.322,0,0,0,7.6,1.223Z" transform="translate(22.8 10)"/><path class="a" d="M12.017,12.5H.649A.665.665,0,0,1,.1,12.214a.6.6,0,0,1-.048-.589L5.269.374A.65.65,0,0,1,5.841,0a.658.658,0,0,1,.595.337l6.156,11.251a.606.606,0,0,1-.019.612A.648.648,0,0,1,12.017,12.5ZM5.909,2.049l-4.259,9.2h9.291Z" transform="translate(7.6 5)"/><path class="a" d="M12.063,1.25H.6A.612.612,0,0,1,0,.624.611.611,0,0,1,.6,0h11.46a.611.611,0,0,1,.6.624.612.612,0,0,1-.6.626" transform="translate(12.667 5)"/><path class="a" d="M6.939,17.5a.654.654,0,0,1-.622-.409L.04.83A.593.593,0,0,1,.119.261.684.684,0,0,1,.659,0H3.316a.638.638,0,0,1,.66.62.639.639,0,0,1-.66.621H1.6l5.96,15.428a.609.609,0,0,1-.4.793.72.72,0,0,1-.226.038" transform="translate(22.8)"/><path class="a" d="M.633,12.5a.676.676,0,0,1-.308-.074.624.624,0,0,1-.244-.851L6.413.324a.644.644,0,0,1,.86-.249A.621.621,0,0,1,7.52.924L1.188,12.175a.625.625,0,0,1-.555.325" transform="translate(17.733 5)"/><path class="a" d="M.6,2.5A.615.615,0,0,1,.1,2.249.511.511,0,0,1,.274,1.5,11.519,11.519,0,0,1,9.751.642a.528.528,0,0,1,.341.705.637.637,0,0,1-.784.3,10.178,10.178,0,0,0-8.377.762A.719.719,0,0,1,.6,2.5" transform="translate(2.533 6.25)"/><path class="a" d="M.633,2.5A.626.626,0,0,1,0,1.876V.624A.625.625,0,0,1,.633,0a.625.625,0,0,1,.633.624V1.876A.626.626,0,0,1,.633,2.5" transform="translate(12.667 3.75)"/><path class="a" d="M5.7,1.25H.633A.625.625,0,1,1,.633,0H5.7a.625.625,0,1,1,0,1.25" transform="translate(10.133 2.5)"/></svg>