<svg xmlns="http://www.w3.org/2000/svg" viewBox="0 0 43 25"><defs><style>.a{fill:#232f3a;}</style></defs><path class="a" d="M32.268,15H12.884c-2.65,0-5.51-1.85-5.51-4.838V6.6L.489,5.137A.606.606,0,0,1,0,4.538V.625A.62.62,0,0,1,.615,0H17.651A15.568,15.568,0,0,1,28.336,4.157,13.922,13.922,0,0,1,32.856,14.2a.556.556,0,0,1,.026.175A.62.62,0,0,1,32.268,15ZM1.229,1.251V4.025L8.114,5.487A.61.61,0,0,1,8.6,6.1v4.063c0,2.146,2.214,3.587,4.281,3.587H31.614c-.352-7.008-6.485-12.5-13.963-12.5Z" transform="translate(8.853 6.25)"/><path class="a" d="M12.008,10H.64A.655.655,0,0,1,0,9.332V.665A.646.646,0,0,1,.64,0,12.362,12.362,0,0,1,12.624,9.16a.668.668,0,0,1-.109.571A.609.609,0,0,1,12.008,10ZM1.28,1.345v7.32H11.13A11.044,11.044,0,0,0,1.28,1.345Z" transform="translate(26.559 8.75)"/><path class="a" d="M.632,6.25A.625.625,0,0,1,0,5.625v-5A.626.626,0,0,1,.632,0a.626.626,0,0,1,.632.625v5a.625.625,0,0,1-.632.625" transform="translate(26.559)"/><path class="a" d="M34.779,1.25H.632A.625.625,0,1,1,.632,0H34.779a.625.625,0,1,1,0,1.25" transform="translate(7.588 3.75)"/><path class="a" d="M19.6,1.25H.632A.625.625,0,1,1,.632,0H19.6a.625.625,0,1,1,0,1.25" transform="translate(20.235 23.75)"/><path class="a" d="M5.325,11.25A5.492,5.492,0,0,1,0,5.625,5.483,5.483,0,0,1,5.325,0a.622.622,0,0,1,.608.642.623.623,0,0,1-.608.642A4.229,4.229,0,0,0,1.216,5.625,4.238,4.238,0,0,0,5.325,9.966,4.087,4.087,0,0,0,8.97,7.627a.6.6,0,0,1,.821-.27.666.666,0,0,1,.257.873A5.288,5.288,0,0,1,5.325,11.25" transform="translate(0 6.25)"/></svg>