<svg xmlns="http://www.w3.org/2000/svg" viewBox="0 0 36 20"><defs><style>.a{fill:#232f3a;}</style></defs><g transform="translate(0)"><path class="a" d="M3.251,5.882A3.71,3.71,0,0,1,.086,4.131a.55.55,0,0,1-.072-.42.577.577,0,0,1,.258-.364L5.62.083A.587.587,0,0,1,5.921,0a.577.577,0,0,1,.49.265A3.649,3.649,0,0,1,5.2,5.325,3.7,3.7,0,0,1,3.251,5.882Zm2.43-4.5L1.42,3.984a2.6,2.6,0,0,0,1.841.74A2.558,2.558,0,0,0,4.6,4.358a2.486,2.486,0,0,0,1.151-1.57A2.53,2.53,0,0,0,5.681,1.378Z" transform="translate(27.871 14.118)"/><path class="a" d="M1.353,8.235a.621.621,0,0,1-.14-.022.613.613,0,0,1-.377-.25A4.9,4.9,0,0,1,.132,4.1,5.19,5.19,0,0,1,2.654.783,5.9,5.9,0,0,1,5.594,0a5.662,5.662,0,0,1,4.766,2.485.518.518,0,0,1,.076.414.553.553,0,0,1-.275.356L1.673,8.144A.636.636,0,0,1,1.353,8.235Zm4.242-7.1a4.635,4.635,0,0,0-2.3.613A3.958,3.958,0,0,0,1.586,6.863L8.968,2.608A4.491,4.491,0,0,0,5.594,1.133Z" transform="translate(25.548 10.588)"/><path class="a" d="M4.646,4.706C2,4.706,0,2.912,0,.534A.56.56,0,0,1,.593,0H8.7a.567.567,0,0,1,.594.534C9.291,2.912,7.294,4.706,4.646,4.706ZM1.233,1.065A3.294,3.294,0,0,0,4.646,3.641,3.3,3.3,0,0,0,8.058,1.065H1.233Z" transform="translate(4.645 15.294)"/><path class="a" d="M14.5,7.059H.593a.6.6,0,0,1-.5-.281.628.628,0,0,1-.041-.585C1.9,2.026,4.771,0,8.824,0,12.2,0,15.1,3.546,15.1,6.449A.6.6,0,0,1,14.5,7.059ZM8.824,1.221C5.508,1.221,3.2,2.688,1.55,5.837h12.3C13.492,3.911,11.409,1.221,8.824,1.221Z" transform="translate(0 9.412)"/><path class="a" d="M11.032,1.176H.581A.581.581,0,0,1,0,.589.583.583,0,0,1,.581,0H11.032a.583.583,0,0,1,.581.589.581.581,0,0,1-.581.587" transform="translate(15.097 14.118)"/><path class="a" d="M19.231,11.765H14.415a.582.582,0,0,1-.588-.59c0-3.408-2.327-6.468-3.426-6.468H.588A.589.589,0,0,1,0,4.117V.589A.589.589,0,0,1,.588,0H11.165a.582.582,0,0,1,.588.589v2.94a.58.58,0,0,1-.147.389c1.7,1.056,3.183,3.986,3.376,6.67H18.69c.16-1.392.836-4.795,3.641-6.305V.589A.582.582,0,0,1,22.919,0h1.933a.589.589,0,0,1,.553.388c.013.042,1.986,5.49,3.565,8.66a.585.585,0,1,1-1.051.516c-1.373-2.749-3.009-7.114-3.478-8.386h-.934v3.47a.584.584,0,0,1-.345.529,5.743,5.743,0,0,0-2.851,3.532,9.992,9.992,0,0,0-.492,2.49A.585.585,0,0,1,19.231,11.765ZM1.175,1.177V3.529H10.4a.9.9,0,0,1,.176.012V1.177Z" transform="translate(3.484 1.176)"/><path class="a" d="M.581,4.706A.581.581,0,0,1,0,4.119V.589a.581.581,0,1,1,1.161,0V4.119a.581.581,0,0,1-.581.587" transform="translate(4.645 5.882)"/><path class="a" d="M5.226,1.176H.581A.581.581,0,0,1,0,.589.583.583,0,0,1,.581,0H5.226a.583.583,0,0,1,.581.589.581.581,0,0,1-.581.587" transform="translate(23.226)"/></g></svg>