<svg xmlns="http://www.w3.org/2000/svg" viewBox="0 0 17 35"><defs><style>.a{fill:#232f3a;}</style></defs><path class="a" d="M.5,11a.562.562,0,0,1-.5-.612V.61A.56.56,0,0,1,.5,0,.56.56,0,0,1,1,.61v9.778A.562.562,0,0,1,.5,11" transform="translate(2 12)"/><path class="a" d="M6.579,7H6.424A6.193,6.193,0,0,1,0,.92a.591.591,0,0,1,1.182,0A4.973,4.973,0,0,0,6.424,5.832h.155A5.25,5.25,0,0,0,11.818.582.591.591,0,0,1,13,.582,6.429,6.429,0,0,1,6.579,7" transform="translate(2 28)"/><path class="a" d="M.5,11a.562.562,0,0,1-.5-.612V.61A.56.56,0,0,1,.5,0,.56.56,0,0,1,1,.61v9.778A.562.562,0,0,1,.5,11" transform="translate(14 12)"/><path class="a" d="M12.409,7a.59.59,0,0,1-.591-.6A5.17,5.17,0,0,0,6.579,1.192H6.424A5.135,5.135,0,0,0,1.182,6.332a.6.6,0,0,1-.591.6A.6.6,0,0,1,0,6.332,6.309,6.309,0,0,1,6.424,0h.155A6.42,6.42,0,0,1,13,6.4a.589.589,0,0,1-.591.6" transform="translate(2)"/><path class="a" d="M5.4,7H.6A.585.585,0,0,1,0,6.418V.583A.593.593,0,0,1,.6,0H5.4A.593.593,0,0,1,6,.583V6.418A.585.585,0,0,1,5.4,7ZM1.2,1.168V5.833H4.8V1.168Z" transform="translate(0 6)"/><path class="a" d="M5.4,7H.6A.585.585,0,0,1,0,6.418V.583A.593.593,0,0,1,.6,0H5.4A.593.593,0,0,1,6,.583V6.418A.585.585,0,0,1,5.4,7ZM1.2,1.168V5.833H4.8V1.168Z" transform="translate(11 6)"/><path class="a" d="M5.4,7H.6A.586.586,0,0,1,0,6.417V.584A.593.593,0,0,1,.6,0H5.4A.593.593,0,0,1,6,.584V6.417A.586.586,0,0,1,5.4,7ZM1.2,1.168V5.835H4.8V1.168Z" transform="translate(0 22)"/><path class="a" d="M5.4,7H.6A.586.586,0,0,1,0,6.417V.584A.593.593,0,0,1,.6,0H5.4A.593.593,0,0,1,6,.584V6.417A.586.586,0,0,1,5.4,7ZM1.2,1.168V5.835H4.8V1.168Z" transform="translate(11 22)"/><path class="a" d="M6.417,1H.583A.543.543,0,0,1,0,.5.545.545,0,0,1,.583,0H6.417A.545.545,0,0,1,7,.5a.543.543,0,0,1-.583.5" transform="translate(5 9)"/><path class="a" d="M6.417,1H.583A.544.544,0,0,1,0,.5.543.543,0,0,1,.583,0H6.417A.543.543,0,0,1,7,.5a.544.544,0,0,1-.583.5" transform="translate(5 25)"/></svg>